# xmcd
#
# Track frame offsets: 
#        150
#        20245
#        41951
#        58956
#        73319
#        86823
#        101543
#        120145
#        131934
#        159234
#        182370
#        201085
#
# Disc length: 2911 seconds
#
# Revision: 1
# Processed by: cddbd v1.5.2PL0 Copyright (c) Steve Scherf et al.
# Submitted via: ExactAudioCopyFreeDBPlugin 1.0
#
DISCID=ad0b5d0c
DTITLE=Tshisungu Kalomba and Kassala - Mokumba
DYEAR=2003
DGENRE=Folk
TTITLE0=Dimba
TTITLE1=Wangay
TTITLE2=Uluhuala
TTITLE3=Safi
TTITLE4=Mokumba
TTITLE5=Ngala Baba
TTITLE6=Permis
TTITLE7=Molangwa
TTITLE8=Ditanta
TTITLE9=Love me
TTITLE10=Dodo Payer
TTITLE11=Munanga
EXTD=TSHISUNGU KALOMBA and KASSALA
EXTT0=
EXTT1=
EXTT2=
EXTT3=
EXTT4=
EXTT5=
EXTT6=
EXTT7=
EXTT8=
EXTT9=
EXTT10=
EXTT11=
PLAYORDER=
